HIERARCHY
ROOT Root
{
  OFFSET 0.0 0.0 0.0
  CHANNELS 6 Xposition Yposition Zposition Zrotation Yrotation Xrotation
  JOINT Hips
  {
    OFFSET 0.0 100.0 0.0
    CHANNELS 6 Xposition Yposition Zposition Zrotation Yrotation Xrotation
    JOINT Spine1
    {
      OFFSET 5.003913 -0.037094 -0.013727
      CHANNELS 3 Zrotation Yrotation Xrotation
      JOINT Spine2
      {
        OFFSET 7.125363 -1e-06 0.0
        CHANNELS 3 Zrotation Yrotation Xrotation
        JOINT Chest
        {
          OFFSET 7.594027 1e-06 0.0
          CHANNELS 3 Zrotation Yrotation Xrotation
          JOINT Neck1
          {
            OFFSET 26.313086 -0.460272 -0.181672
            CHANNELS 3 Zrotation Yrotation Xrotation
            JOINT Neck2
            {
              OFFSET 8.045911 0.0 0.0
              CHANNELS 3 Zrotation Yrotation Xrotation
              JOINT Head
              {
                OFFSET 6.432774 0.0 0.0
                CHANNELS 3 Zrotation Yrotation Xrotation
                JOINT HeadEnd
                {
                  OFFSET 16.169773 0.06451 0.00362
                  CHANNELS 3 Zrotation Yrotation Xrotation
                }
                JOINT Jaw
                {
                  OFFSET 0.108741 3.12938 0.002639
                  CHANNELS 3 Zrotation Yrotation Xrotation
                }
                JOINT LeftEye
                {
                  OFFSET 4.45173 8.166359 3.206392
                  CHANNELS 3 Zrotation Yrotation Xrotation
                }
                JOINT RightEye
                {
                  OFFSET 4.436895 8.135758 -3.222429
                  CHANNELS 3 Zrotation Yrotation Xrotation
                }
              }
            }
          }
          JOINT LeftShoulder
          {
            OFFSET 23.218927 5.195579 1.621656
            CHANNELS 3 Zrotation Yrotation Xrotation
            JOINT LeftArm
            {
              OFFSET 15.902118 2e-06 -2e-06
              CHANNELS 3 Zrotation Yrotation Xrotation
              JOINT LeftForeArm
              {
                OFFSET 28.739307 0.0 -1e-06
                CHANNELS 3 Zrotation Yrotation Xrotation
                JOINT LeftHand
                {
                  OFFSET 27.093981 -4e-06 0.0
                  CHANNELS 3 Zrotation Yrotation Xrotation
                  JOINT LeftHandThumb1
                  {
                    OFFSET 2.276781 3.380274 0.83384
                    CHANNELS 3 Zrotation Yrotation Xrotation
                    JOINT LeftHandThumb2
                    {
                      OFFSET 4.705309 -1e-06 -1e-06
                      CHANNELS 3 Zrotation Yrotation Xrotation
                      JOINT LeftHandThumb3
                      {
                        OFFSET 2.798515 0.0 3e-06
                        CHANNELS 3 Zrotation Yrotation Xrotation
                        JOINT LeftHandThumbEnd
                        {
                          OFFSET 3.180793 4e-06 -4e-06
                          CHANNELS 3 Zrotation Yrotation Xrotation
                        }
                      }
                    }
                  }
                  JOINT LeftHandIndex1
                  {
                    OFFSET 3.247786 2.352677 0.137192
                    CHANNELS 3 Zrotation Yrotation Xrotation
                    JOINT LeftHandIndex2
                    {
                      OFFSET 6.367095 1e-06 0.0
                      CHANNELS 3 Zrotation Yrotation Xrotation
                      JOINT LeftHandIndex3
                      {
                        OFFSET 3.662364 0.0 0.0
                        CHANNELS 3 Zrotation Yrotation Xrotation
                        JOINT LeftHandIndex4
                        {
                          OFFSET 2.329242 4e-06 -4e-06
                          CHANNELS 3 Zrotation Yrotation Xrotation
                          JOINT LeftHandIndexEnd
                          {
                            OFFSET 2.767823 1e-06 0.0
                            CHANNELS 3 Zrotation Yrotation Xrotation
                          }
                        }
                      }
                    }
                  }
                  JOINT LeftHandMiddle1
                  {
                    OFFSET 3.163612 0.945023 -0.406112
                    CHANNELS 3 Zrotation Yrotation Xrotation
                    JOINT LeftHandMiddle2
                    {
                      OFFSET 6.276789 3e-06 0.0
                      CHANNELS 3 Zrotation Yrotation Xrotation
                      JOINT LeftHandMiddle3
                      {
                        OFFSET 4.35652 -1e-06 4e-06
                        CHANNELS 3 Zrotation Yrotation Xrotation
                        JOINT LeftHandMiddle4
                        {
                          OFFSET 2.996877 0.0 8e-06
                          CHANNELS 3 Zrotation Yrotation Xrotation
                          JOINT LeftHandMiddleEnd
                          {
                            OFFSET 2.323256 3e-06 -4e-06
                            CHANNELS 3 Zrotation Yrotation Xrotation
                          }
                        }
                      }
                    }
                  }
                  JOINT LeftHandRing1
                  {
                    OFFSET 2.882606 -0.309162 0.107445
                    CHANNELS 3 Zrotation Yrotation Xrotation
                    JOINT LeftHandRing2
                    {
                      OFFSET 6.033198 0.0 4e-06
                      CHANNELS 3 Zrotation Yrotation Xrotation
                      JOINT LeftHandRing3
                      {
                        OFFSET 4.350578 3e-06 0.0
                        CHANNELS 3 Zrotation Yrotation Xrotation
                        JOINT LeftHandRing4
                        {
                          OFFSET 2.651321 2e-06 -7e-06
                          CHANNELS 3 Zrotation Yrotation Xrotation
                          JOINT LeftHandRingEnd
                          {
                            OFFSET 1.937663 1e-06 -4e-06
                            CHANNELS 3 Zrotation Yrotation Xrotation
                          }
                        }
                      }
                    }
                  }
                  JOINT LeftHandPinky1
                  {
                    OFFSET 2.865315 -1.525436 0.575687
                    CHANNELS 3 Zrotation Yrotation Xrotation
                    JOINT LeftHandPinky2
                    {
                      OFFSET 5.54936 1e-06 -8e-06
                      CHANNELS 3 Zrotation Yrotation Xrotation
                      JOINT LeftHandPinky3
                      {
                        OFFSET 3.070974 0.0 -4e-06
                        CHANNELS 3 Zrotation Yrotation Xrotation
                        JOINT LeftHandPinky4
                        {
                          OFFSET 1.549672 1e-06 0.0
                          CHANNELS 3 Zrotation Yrotation Xrotation
                          JOINT LeftHandPinkyEnd
                          {
                            OFFSET 1.952123 0.0 0.0
                            CHANNELS 3 Zrotation Yrotation Xrotation
                          }
                        }
                      }
                    }
                  }
                }
              }
            }
          }
          JOINT RightShoulder
          {
            OFFSET 23.161716 5.296122 -1.380114
            CHANNELS 3 Zrotation Yrotation Xrotation
            JOINT RightArm
            {
              OFFSET -16.027195 -2e-06 1.1e-05
              CHANNELS 3 Zrotation Yrotation Xrotation
              JOINT RightForeArm
              {
                OFFSET -28.736639 4e-06 2e-06
                CHANNELS 3 Zrotation Yrotation Xrotation
                JOINT RightHand
                {
                  OFFSET -27.133619 6e-06 0.0
                  CHANNELS 3 Zrotation Yrotation Xrotation
                  JOINT RightHandThumb1
                  {
                    OFFSET -2.274328 -3.351035 -0.83067
                    CHANNELS 3 Zrotation Yrotation Xrotation
                    JOINT RightHandThumb2
                    {
                      OFFSET -4.703594 -3e-06 2e-06
                      CHANNELS 3 Zrotation Yrotation Xrotation
                      JOINT RightHandThumb3
                      {
                        OFFSET -2.794935 -4e-06 -3e-06
                        CHANNELS 3 Zrotation Yrotation Xrotation
                        JOINT RightHandThumbEnd
                        {
                          OFFSET -3.183852 4e-06 1e-06
                          CHANNELS 3 Zrotation Yrotation Xrotation
                        }
                      }
                    }
                  }
                  JOINT RightHandIndex1
                  {
                    OFFSET -3.253496 -2.33755 -0.127667
                    CHANNELS 3 Zrotation Yrotation Xrotation
                    JOINT RightHandIndex2
                    {
                      OFFSET -6.344434 0.0 0.0
                      CHANNELS 3 Zrotation Yrotation Xrotation
                      JOINT RightHandIndex3
                      {
                        OFFSET -3.654871 0.0 -8e-06
                        CHANNELS 3 Zrotation Yrotation Xrotation
                        JOINT RightHandIndex4
                        {
                          OFFSET -2.327586 -1e-06 0.0
                          CHANNELS 3 Zrotation Yrotation Xrotation
                          JOINT RightHandIndexEnd
                          {
                            OFFSET -2.770001 3e-06 8e-06
                            CHANNELS 3 Zrotation Yrotation Xrotation
                          }
                        }
                      }
                    }
                  }
                  JOINT RightHandMiddle1
                  {
                    OFFSET -3.168223 -0.944764 0.411762
                    CHANNELS 3 Zrotation Yrotation Xrotation
                    JOINT RightHandMiddle2
                    {
                      OFFSET -6.266691 -1e-06 -4e-06
                      CHANNELS 3 Zrotation Yrotation Xrotation
                      JOINT RightHandMiddle3
                      {
                        OFFSET -4.348901 0.0 0.0
                        CHANNELS 3 Zrotation Yrotation Xrotation
                        JOINT RightHandMiddle4
                        {
                          OFFSET -3.00024 2e-06 -4e-06
                          CHANNELS 3 Zrotation Yrotation Xrotation
                          JOINT RightHandMiddleEnd
                          {
                            OFFSET -2.321477 -4e-06 -4e-06
                            CHANNELS 3 Zrotation Yrotation Xrotation
                          }
                        }
                      }
                    }
                  }
                  JOINT RightHandRing1
                  {
                    OFFSET -2.885654 0.293261 -0.119232
                    CHANNELS 3 Zrotation Yrotation Xrotation
                    JOINT RightHandRing2
                    {
                      OFFSET -6.032835 -1e-06 -4e-06
                      CHANNELS 3 Zrotation Yrotation Xrotation
                      JOINT RightHandRing3
                      {
                        OFFSET -4.33881 0.0 -4e-06
                        CHANNELS 3 Zrotation Yrotation Xrotation
                        JOINT RightHandRing4
                        {
                          OFFSET -2.654903 -4e-06 -4e-06
                          CHANNELS 3 Zrotation Yrotation Xrotation
                          JOINT RightHandRingEnd
                          {
                            OFFSET -1.935122 0.0 4e-06
                            CHANNELS 3 Zrotation Yrotation Xrotation
                          }
                        }
                      }
                    }
                  }
                  JOINT RightHandPinky1
                  {
                    OFFSET -2.866241 1.503904 -0.60527
                    CHANNELS 3 Zrotation Yrotation Xrotation
                    JOINT RightHandPinky2
                    {
                      OFFSET -5.553177 -2e-06 0.0
                      CHANNELS 3 Zrotation Yrotation Xrotation
                      JOINT RightHandPinky3
                      {
                        OFFSET -3.062664 -1e-06 -4e-06
                        CHANNELS 3 Zrotation Yrotation Xrotation
                        JOINT RightHandPinky4
                        {
                          OFFSET -1.546529 2e-06 4e-06
                          CHANNELS 3 Zrotation Yrotation Xrotation
                          JOINT RightHandPinkyEnd
                          {
                            OFFSET -1.952341 0.0 -4e-06
                            CHANNELS 3 Zrotation Yrotation Xrotation
                          }
                        }
                      }
                    }
                  }
                }
              }
            }
          }
        }
      }
    }
    JOINT LeftLeg
    {
      OFFSET -8.443107 2.567604 10.043214
      CHANNELS 3 Zrotation Yrotation Xrotation
      JOINT LeftShin
      {
        OFFSET 43.229198 1e-06 -1e-06
        CHANNELS 3 Zrotation Yrotation Xrotation
        JOINT LeftFoot
        {
          OFFSET 42.298611 1e-06 1e-06
          CHANNELS 3 Zrotation Yrotation Xrotation
          JOINT LeftToeBase
          {
            OFFSET 14.165858 1e-06 0.0
            CHANNELS 3 Zrotation Yrotation Xrotation
            JOINT LeftToeEnd
            {
              OFFSET 6.7141 -0.234461 0.0
              CHANNELS 3 Zrotation Yrotation Xrotation
            }
          }
        }
      }
    }
    JOINT RightLeg
    {
      OFFSET -8.303923 2.592729 -10.047278
      CHANNELS 3 Zrotation Yrotation Xrotation
      JOINT RightShin
      {
        OFFSET -43.369682 0.0 1e-06
        CHANNELS 3 Zrotation Yrotation Xrotation
        JOINT RightFoot
        {
          OFFSET -42.260784 4e-06 2e-06
          CHANNELS 3 Zrotation Yrotation Xrotation
          JOINT RightToeBase
          {
            OFFSET -14.222245 -2e-06 -1e-06
            CHANNELS 3 Zrotation Yrotation Xrotation
            JOINT RightToeEnd
            {
              OFFSET -6.660062 0.232574 -2e-06
              CHANNELS 3 Zrotation Yrotation Xrotation
            }
          }
        }
      }
    }
  }
}
MOTION
Frames: 5
Frame Time: 0.03333333333333333
0.0 0.0 0.0 0.0 -0.0 0.0 -0.160109 93.585312 4.298635 91.067497 3.161902 89.626114 0.661326 2.66354 1.24419 -10.37116 0.71147 4.533447 20.611603 -1.845162 2.292624 40.497753 -14.294724 2.624543 -2.721039 -0.281035 3.517343 -35.703453 0.176556 3.38888 6e-06 1e-06 -1e-06 -0.004423 -0.002898 -0.01832 0.062007 -0.018655 -0.000962 0.117786 0.000904 -0.032596 -105.02285 -66.982712 117.296028 59.136501 -49.288445 -38.966793 131.273819 0.107609 -0.752864 6.007904 7.431241 -3.735934 17.636526 -26.32239 52.410835 -19.466587 -14.395515 29.410221 -1.2e-05 -8.774769 -4e-06 15.611914 -18.488909 6.571702 -0.609773 -1.795649 -3.889307 -4.807051 -11.046722 -2.937854 5e-05 -20.975832 -5e-05 -5.019846 -25.033329 -4.031914 6e-06 1e-06 -1e-06 -10.634488 -5.68694 -3.565571 10.573236 -17.92281 -3.113917 3.2e-05 -13.821078 -2.4e-05 -0.501664 -31.181179 -4.02704 -11.395074 -60.001675 7.046617 -13.982649 -7.150156 -2.875031 13.772666 -8.401439 -3.218237 0.347827 -34.211227 0.771568 -0.962969 -17.733223 2.620992 1e-06 -1e-06 2e-06 -17.346323 -20.095089 -4.201787 21.757444 -1.638379 3.866401 1e-05 -6.338764 -1e-05 -1.697509 -22.591532 -6.194019 3e-06 -9e-06 -1e-06 -45.959358 -89.176704 -123.312675 74.875404 -42.440624 -29.111422 117.829849 1.122608 -0.810157 10.298981 7.046011 -11.082172 22.182102 -20.375885 49.933235 -16.701767 -16.743404 28.476448 -3.2e-05 -12.690521 -1.3e-05 15.844945 -17.801964 2.817119 -0.105923 -1.513854 -4.275874 -5.039011 -5.612847 -2.953562 3.1e-05 -11.020496 -6e-06 -6.111206 -15.895293 -3.840491 3e-06 -0.0 -1e-06 -10.283323 -5.680256 -4.34185 11.02825 -11.302397 -2.372612 -1.384221 -14.238533 -6.320112 -0.625357 -26.924139 -3.827579 -3.713962 -49.409927 -4.111264 -13.708462 -7.363438 -3.720958 18.141073 -14.052735 -3.242646 5.5e-05 -18.787222 6e-06 -0.429691 -8.456036 2.555517 3e-06 1e-06 0.0 -15.923424 -20.0944 -5.473617 30.419024 -7.19087 1.735937 2.1e-05 -8.162905 7e-06 -1.861807 -22.861406 -6.167904 -2e-06 1e-06 -4e-06 155.98587 -15.803574 -8.467865 29.411974 -0.070956 0.745946 -69.823341 11.404104 -9.710765 -4.652213 1.344342 2.091258 -0.999996 -0.0 -0.0 7.915721 -6.96779 -23.151304 30.797773 -0.274698 0.370315 -100.147705 -2.077379 -11.271709 -5.663446 0.558536 1.607309 -1.000001 2e-06 -0.0 
0.0 0.0 0.0 0.0 -0.0 0.0 -0.203843 93.551102 4.691268 91.147057 2.944997 89.882706 0.733686 2.640898 1.293842 -10.347059 0.730673 4.534853 20.684048 -1.889239 2.360567 40.16235 -14.370846 2.593146 -2.711656 -0.329812 3.321874 -35.459728 0.249512 3.225003 7e-06 -0.0 -1e-06 -0.018037 0.000953 -0.012794 0.060681 -0.001048 0.003885 0.103255 -0.008557 -0.027519 -104.96003 -67.132065 116.863472 60.374386 -48.726219 -40.196159 131.899048 0.11645 -0.742482 6.121126 8.094861 -4.241812 17.636681 -26.323135 52.411587 -19.46681 -14.395758 29.410648 -3e-06 -8.774911 1.1e-05 15.67687 -18.440672 6.515196 -0.609774 -1.795661 -3.889351 -4.807119 -11.04692 -2.937843 -2e-05 -20.976318 7e-05 -5.020112 -25.033997 -4.031825 5e-06 -1e-06 -1e-06 -10.634586 -5.687004 -3.565596 10.573355 -17.923145 -3.113903 -1.6e-05 -13.821412 4.1e-05 -0.501883 -31.182116 -4.026953 -11.123798 -59.803913 6.889543 -13.982785 -7.150239 -2.875041 13.772833 -8.401574 -3.218271 0.347659 -34.212097 0.771777 -0.963096 -17.733709 2.621105 0.0 -1e-06 3e-06 -17.346519 -20.095358 -4.201756 21.757713 -1.638389 3.866427 -3e-06 -6.338915 1.7e-05 -1.69764 -22.59215 -6.194015 1e-06 -6e-06 -5e-06 -67.060005 -89.182907 -102.357376 74.883835 -41.948071 -28.862743 118.275795 1.206968 -0.663812 10.728843 7.191577 -10.887732 22.182177 -20.376003 49.933643 -16.701979 -16.743734 28.476828 2e-05 -12.690766 2.6e-05 15.735357 -17.76602 2.907966 -0.105917 -1.513867 -4.275913 -5.0391 -5.612936 -2.953569 -1.9e-05 -11.020658 -7e-06 -6.111423 -15.895606 -3.840522 2e-06 -0.0 -0.0 -10.283451 -5.680347 -4.341847 11.028388 -11.302484 -2.372676 -1.384313 -14.238761 -6.320202 -0.625471 -26.924627 -3.827706 -3.815961 -49.327034 -4.022315 -13.708636 -7.363553 -3.720936 18.141315 -14.052831 -3.242741 -3.5e-05 -18.787504 -2e-05 -0.429737 -8.456173 2.555528 1e-06 -0.0 0.0 -15.923701 -20.094667 -5.473582 30.419529 -7.190815 1.735908 -1.7e-05 -8.163019 -9e-06 -1.861969 -22.861849 -6.168079 0.0 -3e-06 -3e-06 155.540573 -15.582366 -7.887685 29.913042 -0.057887 0.702348 -70.003448 10.917518 -9.522335 -4.714798 1.351295 2.083005 -1.000003 0.0 0.0 7.958352 -6.835858 -23.012629 30.549204 -0.276625 0.326001 -100.36055 -2.468514 -11.563461 -5.678778 0.532506 1.604901 -1.0 0.0 -0.0 
0.0 0.0 0.0 0.0 -0.0 0.0 -0.213996 93.482735 5.134063 91.232773 2.751135 90.187653 0.813998 2.595155 1.353812 -10.33729 0.727722 4.516165 20.797518 -1.954433 2.435912 39.943508 -14.344786 2.54102 -2.704637 -0.379939 3.171638 -35.246571 0.31571 2.978052 6e-06 -1e-06 2e-06 -0.020184 0.006484 -0.032171 0.043472 0.010096 -0.02057 0.075885 -0.008225 -0.042536 -105.190559 -67.369507 116.824226 61.259434 -48.071968 -41.111565 132.049408 0.10273 -0.727565 6.163299 8.657507 -3.892594 17.636553 -26.322659 52.411022 -19.466616 -14.395544 29.410307 -6e-06 -8.774791 -1e-06 15.738437 -18.322943 6.482361 -0.609773 -1.795651 -3.889317 -4.807065 -11.046791 -2.937842 1.1e-05 -20.976011 4e-06 -5.019941 -25.03359 -4.031862 5e-06 2e-06 -1e-06 -10.63449 -5.686954 -3.565577 10.573238 -17.922928 -3.113894 8e-06 -13.821213 5e-06 -0.501762 -31.18157 -4.026992 -10.983147 -59.772263 6.8321 -13.982654 -7.150176 -2.875035 13.772673 -8.401485 -3.218234 0.347742 -34.211559 0.77166 -0.963029 -17.733418 2.621031 1e-06 -1e-06 -0.0 -17.346334 -20.095167 -4.20177 21.757469 -1.638376 3.866406 4e-06 -6.338825 1e-06 -1.697562 -22.591797 -6.194006 1e-06 -4e-06 -1e-06 -75.845177 -89.086143 -93.621658 74.529129 -41.476143 -28.408432 118.582413 1.278505 -0.598906 11.178082 7.321885 -10.667453 22.181978 -20.375751 49.933174 -16.701801 -16.743454 28.476488 -1.7e-05 -12.690541 1e-05 15.609402 -17.736395 3.007113 -0.105919 -1.513857 -4.275869 -5.039014 -5.612856 -2.953556 1.4e-05 -11.020495 -2.4e-05 -6.111236 -15.895314 -3.840495 1e-06 0.0 0.0 -10.283332 -5.680275 -4.341826 11.028251 -11.302374 -2.372646 -1.384243 -14.238551 -6.320133 -0.625363 -26.924162 -3.827651 -3.838464 -49.201637 -4.006552 -13.708467 -7.363459 -3.720931 18.141077 -14.052701 -3.242696 3.2e-05 -18.78721 -3.2e-05 -0.429698 -8.456027 2.555489 1e-06 -1e-06 3e-06 -15.923457 -20.094431 -5.473586 30.419071 -7.190801 1.735891 7e-06 -8.162895 -9e-06 -1.861843 -22.86141 -6.167964 1e-06 -2e-06 -2e-06 155.123795 -15.374678 -7.474235 30.421072 -0.060014 0.637837 -70.338913 10.641486 -9.324484 -4.707899 1.33729 2.075251 -0.999997 -0.0 0.0 8.048984 -6.742125 -23.003498 30.347382 -0.275497 0.31125 -100.553703 -2.752101 -11.706147 -5.646254 0.531066 1.606494 -1.0 0.0 1e-06 
0.0 0.0 0.0 0.0 -0.0 0.0 -0.251532 93.389687 5.534853 91.306496 2.521458 90.462738 0.863082 2.551117 1.403377 -10.332252 0.725713 4.534998 20.935738 -2.057209 2.468568 39.863152 -14.369223 2.483974 -2.717964 -0.377612 2.978854 -35.081261 0.38585 2.710818 6e-06 -1e-06 -0.0 -0.01338 0.00968 -0.04524 0.040494 0.014044 -0.032821 0.062811 -0.005439 -0.056795 -105.449936 -67.569633 116.920982 61.720036 -47.430782 -41.666775 131.708405 0.07567 -0.711234 6.225863 9.018912 -2.809466 17.636662 -26.322683 52.411133 -19.466629 -14.395594 29.410351 4e-06 -8.774834 -1.1e-05 15.736904 -18.19573 6.47651 -0.609776 -1.795651 -3.889324 -4.807097 -11.046793 -2.937849 7e-06 -20.976 4e-06 -5.019979 -25.033567 -4.031905 7e-06 -1e-06 4e-06 -10.634538 -5.686966 -3.565587 10.573275 -17.922928 -3.113891 3e-06 -13.821206 3e-06 -0.501772 -31.181536 -4.027018 -10.957225 -59.710907 6.851663 -13.982719 -7.150193 -2.875041 13.772737 -8.401481 -3.218232 0.347733 -34.211536 0.771663 -0.963033 -17.733395 2.62104 -0.0 0.0 1e-06 -17.346432 -20.0952 -4.201779 21.757578 -1.638375 3.866442 2e-06 -6.33882 5e-06 -1.697596 -22.591757 -6.194019 1e-06 -4e-06 -3e-06 -77.906822 -89.072754 -91.640999 73.904282 -41.170643 -27.826742 118.769821 1.137024 -0.594556 11.474895 7.437407 -10.11253 22.18207 -20.375885 49.933258 -16.701843 -16.743534 28.476534 -3.3e-05 -12.690592 9e-06 15.481189 -17.717464 3.049229 -0.105916 -1.513856 -4.275879 -5.039023 -5.612859 -2.953555 3.1e-05 -11.020523 -9e-06 -6.111239 -15.895334 -3.840481 3e-06 -0.0 0.0 -10.283357 -5.680272 -4.341833 11.028303 -11.302406 -2.372642 -1.384231 -14.238573 -6.32012 -0.625359 -26.924227 -3.827592 -3.85516 -49.110142 -3.997811 -13.708504 -7.363456 -3.720937 18.141159 -14.052751 -3.242689 4.5e-05 -18.787271 -1e-06 -0.429695 -8.456063 2.555519 1e-06 -0.0 -2e-06 -15.923493 -20.094444 -5.473583 30.419193 -7.190855 1.735893 1.5e-05 -8.162929 2e-06 -1.861848 -22.861498 -6.167935 -0.0 -0.0 -2e-06 154.695618 -15.2502 -7.234773 30.98164 -0.068501 0.594974 -70.811226 10.525902 -9.207196 -4.708629 1.328294 2.073808 -0.999999 -0.0 -0.0 8.180275 -6.655431 -23.07889 30.103683 -0.282854 0.309053 -100.721474 -2.911981 -11.826307 -5.583011 0.53882 1.609845 -1.000004 1e-06 0.0 
0.0 0.0 0.0 0.0 -0.0 0.0 -0.281905 93.3013 5.986041 91.405106 2.253792 90.684341 0.883494 2.486464 1.444583 -10.328625 0.722465 4.576966 21.097328 -2.191266 2.467359 39.883705 -14.473899 2.432778 -2.745736 -0.344674 2.755323 -34.898495 0.461236 2.469526 8e-06 -0.0 -1e-06 -0.009144 0.010764 -0.048771 0.044874 0.013872 -0.029484 0.056776 -0.002803 -0.067165 -105.719048 -67.704865 117.147377 61.934265 -46.822952 -42.001945 131.017288 0.06944 -0.704961 6.364132 9.278863 -1.37729 17.636673 -26.322744 52.411327 -19.466757 -14.395647 29.410501 -3e-06 -8.774872 -7e-06 15.737312 -18.114141 6.436204 -0.609779 -1.795659 -3.889338 -4.807104 -11.046839 -2.937871 2.2e-05 -20.976114 -2.2e-05 -5.019964 -25.033739 -4.031948 4e-06 0.0 -0.0 -10.634567 -5.686985 -3.565598 10.573327 -17.923004 -3.113927 1.4e-05 -13.821268 -9e-06 -0.501735 -31.181726 -4.027078 -10.888865 -59.549545 6.806467 -13.982759 -7.150216 -2.875052 13.77279 -8.401519 -3.218259 0.347772 -34.211735 0.771623 -0.963015 -17.733503 2.621036 -1e-06 -0.0 2e-06 -17.346472 -20.095264 -4.201804 21.75765 -1.638388 3.866445 6e-06 -6.338845 -5e-06 -1.697573 -22.591883 -6.19409 -2e-06 -4e-06 -2e-06 -75.132561 -89.101036 -94.423553 72.988708 -40.949135 -26.911963 118.929443 0.918133 -0.616491 11.612782 7.528153 -9.102247 22.182104 -20.375975 49.933411 -16.701851 -16.743565 28.47662 -1e-05 -12.690625 1e-05 15.419988 -17.733164 3.052786 -0.105919 -1.513861 -4.27589 -5.039043 -5.612885 -2.95356 9e-06 -11.020576 5e-06 -6.111296 -15.895432 -3.840475 0.0 0.0 0.0 -10.283374 -5.680297 -4.341844 11.028308 -11.302438 -2.372642 -1.384264 -14.23864 -6.320139 -0.625433 -26.924372 -3.827606 -3.846286 -49.069069 -4.014843 -13.708529 -7.363488 -3.720942 18.141169 -14.052787 -3.242689 2e-06 -18.787367 1.3e-05 -0.429722 -8.456112 2.55553 2e-06 0.0 -1e-06 -15.923547 -20.094522 -5.473584 30.419245 -7.190839 1.735905 2e-06 -8.162966 5e-06 -1.861909 -22.861649 -6.167956 1e-06 -5e-06 -2e-06 154.294235 -15.147882 -7.174118 31.57073 -0.072083 0.568308 -71.31398 10.444321 -9.127006 -4.760643 1.338128 2.079117 -0.999995 0.0 -0.0 8.318382 -6.650375 -23.180323 29.888628 -0.292612 0.313903 -100.861145 -2.921927 -11.999523 -5.556553 0.532673 1.608446 -1.000001 1e-06 1e-06 
